<?xml version="1.0" encoding="UTF-8"?>
<svg id="Layer_2" data-name="Layer 2" xmlns="http://www.w3.org/2000/svg" xmlns:xlink="http://www.w3.org/1999/xlink" viewBox="0 0 434.54 72.53">
  <defs>
    <style>
      .cls-1 {
        fill: url(#linear-gradient);
      }

      .cls-1, .cls-2, .cls-3, .cls-4, .cls-5, .cls-6, .cls-7, .cls-8, .cls-9, .cls-10, .cls-11 {
        stroke-width: 0px;
      }

      .cls-2 {
        fill: url(#linear-gradient-11);
      }

      .cls-3 {
        fill: url(#linear-gradient-10);
      }

      .cls-4 {
        fill: url(#linear-gradient-4);
      }

      .cls-5 {
        fill: url(#linear-gradient-2);
      }

      .cls-6 {
        fill: url(#linear-gradient-3);
      }

      .cls-7 {
        fill: url(#linear-gradient-8);
      }

      .cls-8 {
        fill: url(#linear-gradient-9);
      }

      .cls-9 {
        fill: url(#linear-gradient-7);
      }

      .cls-10 {
        fill: url(#linear-gradient-5);
      }

      .cls-11 {
        fill: url(#linear-gradient-6);
      }
    </style>
    <linearGradient id="linear-gradient" x1="54.93" y1="82.31" x2="11.42" y2="13.61" gradientUnits="userSpaceOnUse">
      <stop offset="0" stop-color="#fff"/>
      <stop offset="1" stop-color="#bbbdbf"/>
    </linearGradient>
    <linearGradient id="linear-gradient-2" x1="120.05" y1="66.26" x2="88.94" y2="17.15" xlink:href="#linear-gradient"/>
    <linearGradient id="linear-gradient-3" x1="157.36" y1="62.78" x2="123.06" y2="8.62" xlink:href="#linear-gradient"/>
    <linearGradient id="linear-gradient-4" x1="187.3" y1="67.35" x2="153.73" y2="14.36" xlink:href="#linear-gradient"/>
    <linearGradient id="linear-gradient-5" x1="202.23" y1="11.62" x2="195.52" y2="1.02" xlink:href="#linear-gradient"/>
    <linearGradient id="linear-gradient-6" x1="211.32" y1="65.76" x2="184.41" y2="23.29" xlink:href="#linear-gradient"/>
    <linearGradient id="linear-gradient-7" x1="252" y1="61.26" x2="221.47" y2="13.07" xlink:href="#linear-gradient"/>
    <linearGradient id="linear-gradient-8" x1="298.23" y1="68.77" x2="269.96" y2="24.14" xlink:href="#linear-gradient"/>
    <linearGradient id="linear-gradient-9" x1="340.26" y1="61.94" x2="315.38" y2="22.66" xlink:href="#linear-gradient"/>
    <linearGradient id="linear-gradient-10" x1="379.26" y1="68.51" x2="351.38" y2="24.48" xlink:href="#linear-gradient"/>
    <linearGradient id="linear-gradient-11" x1="430.33" y1="74.07" x2="396.94" y2="21.36" xlink:href="#linear-gradient"/>
  </defs>
  <g id="Layer_1-2" data-name="Layer 1">
    <g>
      <path class="cls-1" d="M62.91,23.2c-2.96-1.57-6.54-2.36-10.75-2.36H0v50.56h7.07V27.92h25.47v43.48h7.07V27.92h12.54c4.09,0,7.26,1.12,9.53,3.35,2.26,2.23,3.4,5.33,3.4,9.29v30.84h7.07v-30.84c0-4.15-.8-7.69-2.41-10.61-1.6-2.92-3.88-5.17-6.84-6.74Z"/>
      <path class="cls-5" d="M116.58,52.07c0,2.7-.55,5.06-1.65,7.07-1.1,2.01-2.64,3.58-4.62,4.72s-4.29,1.7-6.93,1.7-4.95-.57-6.93-1.7-3.52-2.7-4.62-4.72c-1.1-2.01-1.65-4.37-1.65-7.07v-31.22h-7.07v31.69c0,3.96.85,7.45,2.55,10.47s4.07,5.36,7.12,7.03c3.05,1.67,6.59,2.5,10.61,2.5s7.64-.83,10.66-2.5c3.02-1.67,5.38-4.01,7.07-7.03s2.55-6.51,2.55-10.47v-31.69h-7.07v31.22Z"/>
      <rect class="cls-6" x="136.67" width="7.07" height="71.4"/>
      <path class="cls-4" d="M177.32,65.37c-2.08,0-3.73-.38-4.95-1.13-1.23-.75-2.09-1.78-2.59-3.07-.5-1.29-.75-2.78-.75-4.48v-28.77h11.13v-7.07h-11.13v-11.7h-7.07v4.24c0,2.14-.63,3.91-1.89,5.33-1.26,1.42-2.96,2.12-5.09,2.12h-2.36v7.07h9.34v28.77c0,4.9,1.23,8.68,3.68,11.32s5.94,3.96,10.47,3.96c.57,0,1.32-.05,2.26-.14.94-.09,1.79-.24,2.55-.42v-6.32c-.5.06-1.1.13-1.79.19-.69.06-1.29.09-1.79.09Z"/>
      <rect class="cls-10" x="195.34" y="1.13" width="7.07" height="10.38"/>
      <polygon class="cls-11" points="188.27 27.92 195.34 27.92 195.34 71.4 202.41 71.4 202.41 20.85 188.27 20.85 188.27 27.92"/>
      <polygon class="cls-9" points="232.46 61.78 217.13 20.85 209.21 20.85 228.92 71.4 235.99 71.4 255.89 20.85 247.88 20.85 232.46 61.78"/>
      <path class="cls-7" d="M301.07,27.21c-2.01-2.29-4.45-4.12-7.31-5.47-2.86-1.35-6.12-2.03-9.76-2.03-4.59,0-8.72,1.13-12.4,3.4-3.68,2.26-6.59,5.36-8.72,9.29-2.14,3.93-3.21,8.44-3.21,13.54s1.1,9.65,3.3,13.68c2.2,4.02,5.2,7.18,9.01,9.48,3.8,2.3,8.06,3.44,12.78,3.44,3.46,0,6.62-.58,9.48-1.75,2.86-1.16,5.33-2.7,7.4-4.62,2.07-1.92,3.62-4.01,4.62-6.27l-6.04-3.21c-1.57,2.64-3.62,4.84-6.13,6.6-2.52,1.76-5.63,2.64-9.34,2.64-3.21,0-6.21-.82-9.01-2.45-2.8-1.63-5-3.95-6.6-6.93-1.29-2.41-1.95-5.17-2-8.25h39.77c.12-.82.22-1.62.28-2.41.06-.79.09-1.49.09-2.12,0-3.02-.54-5.96-1.6-8.82-1.07-2.86-2.61-5.44-4.62-7.73ZM275.28,28.77c2.67-1.63,5.58-2.45,8.72-2.45s5.97.8,8.49,2.41c2.51,1.6,4.45,3.77,5.8,6.51.97,1.97,1.44,4.12,1.42,6.46h-32.46c.23-2.24.82-4.27,1.75-6.08,1.51-2.92,3.6-5.2,6.27-6.84Z"/>
      <path class="cls-8" d="M329.79,22.26c-1.85,1.06-3.35,2.42-4.48,4.07v-5.48h-7.07v50.56h7.07v-31.13c0-4.15,1.1-7.36,3.3-9.62s5.12-3.4,8.77-3.4h4.43v-7.07h-3.21c-3.46,0-6.4.69-8.82,2.08Z"/>
      <path class="cls-3" d="M371.15,43.67l-8.39-2.45c-.88-.25-1.9-.63-3.06-1.13-1.16-.5-2.19-1.26-3.07-2.26-.88-1-1.32-2.36-1.32-4.06,0-2.2.85-4.02,2.55-5.47,1.7-1.45,3.96-2.17,6.79-2.17s5.52.8,7.88,2.41c2.36,1.6,4.17,3.82,5.42,6.65l6.04-2.83c-1.45-3.96-3.91-7.06-7.4-9.29-3.49-2.23-7.37-3.35-11.65-3.35-3.14,0-6.01.6-8.58,1.79-2.58,1.2-4.62,2.89-6.13,5.09-1.51,2.2-2.26,4.78-2.26,7.73,0,3.15,1.04,5.91,3.11,8.3,2.07,2.39,5.44,4.24,10.09,5.56l7.26,2.08c1,.25,2.17.66,3.49,1.23,1.32.57,2.48,1.37,3.49,2.4,1.01,1.04,1.51,2.44,1.51,4.2,0,2.39-1.04,4.32-3.11,5.8-2.07,1.48-4.62,2.22-7.64,2.22s-6.02-.91-8.63-2.74c-2.61-1.82-4.64-4.28-6.08-7.36l-5.94,2.83c1.63,4.21,4.28,7.55,7.92,10s7.89,3.68,12.73,3.68c3.52,0,6.63-.61,9.34-1.84,2.7-1.23,4.82-2.94,6.37-5.14,1.54-2.2,2.31-4.68,2.31-7.45,0-3.4-1.15-6.35-3.44-8.87-2.3-2.51-5.49-4.37-9.57-5.56Z"/>
      <path class="cls-2" d="M432.13,29.95c-1.6-2.92-3.88-5.17-6.84-6.74-2.96-1.57-6.54-2.36-10.75-2.36h-16.79v7.07h16.79c4.09,0,7.26,1.12,9.53,3.35,2.02,1.99,3.13,4.67,3.35,8.04l-18.25,3.04c-3.71.63-6.76,1.7-9.15,3.21-2.39,1.51-4.15,3.35-5.28,5.52-1.13,2.17-1.7,4.57-1.7,7.22s.72,5.22,2.17,7.36c1.45,2.14,3.43,3.82,5.94,5.05,2.51,1.23,5.38,1.84,8.58,1.84,2.96,0,5.67-.46,8.16-1.37,2.48-.91,4.65-2.14,6.51-3.68,1.25-1.04,2.26-2.16,3.06-3.36v7.27h7.07v-30.84c0-4.15-.8-7.69-2.4-10.61ZM425.29,57.91c-1.45,2.52-3.46,4.51-6.04,5.99-2.58,1.48-5.6,2.22-9.05,2.22-2.83,0-5.14-.79-6.93-2.36-1.79-1.57-2.69-3.49-2.69-5.75s.8-4.34,2.4-6.04c1.6-1.7,4.23-2.86,7.88-3.49l16.6-2.77v3.8c0,3.08-.72,5.88-2.17,8.39Z"/>
    </g>
  </g>
</svg>